<svg width="20" height="20" viewBox="0 0 20 20" fill="none" xmlns="http://www.w3.org/2000/svg">
<g id="Group 8727">
<path id="Vector" d="M12.85 1.95078V5.75078H11.35V1.95078C11.35 1.68078 11.11 1.55078 10.95 1.55078C10.9 1.55078 10.85 1.56078 10.8 1.58078L2.87 4.57078C2.34 4.77078 2 5.27078 2 5.84078V6.51078C1.09 7.19078 0.5 8.28078 0.5 9.51078V5.84078C0.5 4.65078 1.23 3.59078 2.34 3.17078L10.28 0.170781C10.5 0.0907814 10.73 0.0507812 10.95 0.0507812C11.95 0.0507812 12.85 0.860781 12.85 1.95078Z" fill="white"/>
<path id="Vector_2" d="M19.5007 12.5V13.5C19.5007 13.77 19.2907 13.99 19.0107 14H17.5507C17.0207 14 16.5407 13.61 16.5007 13.09C16.4707 12.78 16.5907 12.49 16.7907 12.29C16.9707 12.1 17.2207 12 17.4907 12H19.0007C19.2907 12.01 19.5007 12.23 19.5007 12.5Z" fill="white"/>
<path id="Vector_3" d="M17.48 10.95H18.5C19.05 10.95 19.5 10.5 19.5 9.95V9.51C19.5 7.44 17.81 5.75 15.74 5.75H4.26C3.41 5.75 2.63 6.03 2 6.51C1.09 7.19 0.5 8.28 0.5 9.51V16.24C0.5 18.31 2.19 20 4.26 20H15.74C17.81 20 19.5 18.31 19.5 16.24V16.05C19.5 15.5 19.05 15.05 18.5 15.05H17.63C16.67 15.05 15.75 14.46 15.5 13.53C15.29 12.77 15.54 12.04 16.04 11.55C16.41 11.17 16.92 10.95 17.48 10.95ZM12 10.75H5C4.59 10.75 4.25 10.41 4.25 10C4.25 9.59 4.59 9.25 5 9.25H12C12.41 9.25 12.75 9.59 12.75 10C12.75 10.41 12.41 10.75 12 10.75Z" fill="white"/>
</g>
</svg>
