<svg width="40" height="40" viewBox="0 0 40 40" fill="none" xmlns="http://www.w3.org/2000/svg">
<g id="close icon">
<circle id="Ellipse 381" cx="20" cy="20" r="20" fill="white"/>
<path id="Vector" d="M27.684 25.1686C27.8852 25.3698 27.9982 25.6426 27.9982 25.9272C27.9982 26.2117 27.8852 26.4846 27.684 26.6858C27.4828 26.887 27.2099 27 26.9253 27C26.6408 27 26.3679 26.887 26.1667 26.6858L20.5 21.0177L14.8315 26.684C14.6303 26.8852 14.3574 26.9982 14.0729 26.9982C13.7883 26.9982 13.5154 26.8852 13.3142 26.684C13.113 26.4828 13 26.2099 13 25.9254C13 25.6409 13.113 25.368 13.3142 25.1668L18.9827 19.5004L13.316 13.8323C13.1148 13.6311 13.0018 13.3583 13.0018 13.0737C13.0018 12.7892 13.1148 12.5163 13.316 12.3151C13.5172 12.1139 13.7901 12.0009 14.0747 12.0009C14.3592 12.0009 14.6321 12.1139 14.8333 12.3151L20.5 17.9832L26.1685 12.3142C26.3697 12.113 26.6426 12 26.9271 12C27.2117 12 27.4845 12.113 27.6858 12.3142C27.887 12.5154 28 12.7883 28 13.0728C28 13.3574 27.887 13.6302 27.6858 13.8314L22.0173 19.5004L27.684 25.1686Z" fill="#73C1F2"/>
</g>
</svg>
