<svg width="42" height="37" viewBox="0 0 42 37" fill="none" xmlns="http://www.w3.org/2000/svg">
<path id="Nav Icon" d="M3.96441 0H38.0356C39.087 0 40.0954 0.417678 40.8388 1.16115C41.5823 1.90462 42 2.91299 42 3.96441C42 5.01584 41.5823 6.02421 40.8388 6.76768C40.0954 7.51115 39.087 7.92883 38.0356 7.92883H3.96441C2.91299 7.92883 1.90462 7.51115 1.16115 6.76768C0.417678 6.02421 1.18149e-07 5.01584 1.18149e-07 3.96441C1.18149e-07 2.91299 0.417678 1.90462 1.16115 1.16115C1.90462 0.417678 2.91299 0 3.96441 0ZM3.96441 14.2628H38.0356C38.5562 14.2628 39.0717 14.3653 39.5527 14.5645C40.0337 14.7638 40.4707 15.0558 40.8388 15.4239C41.207 15.7921 41.499 16.2291 41.6982 16.7101C41.8975 17.1911 42 17.7066 42 18.2272C42 18.7478 41.8975 19.2633 41.6982 19.7443C41.499 20.2253 41.207 20.6623 40.8388 21.0305C40.4707 21.3986 40.0337 21.6906 39.5527 21.8898C39.0717 22.0891 38.5562 22.1916 38.0356 22.1916H3.96441C3.4438 22.1916 2.92828 22.0891 2.4473 21.8898C1.96631 21.6906 1.52928 21.3986 1.16115 21.0305C0.79302 20.6623 0.501004 20.2253 0.301773 19.7443C0.102543 19.2633 3.4605e-08 18.7478 3.4605e-08 18.2272C3.4605e-08 17.7066 0.102543 17.1911 0.301773 16.7101C0.501004 16.2291 0.79302 15.7921 1.16115 15.4239C1.52928 15.0558 1.96631 14.7638 2.4473 14.5645C2.92828 14.3653 3.4438 14.2628 3.96441 14.2628ZM3.96441 28.5271H38.0356C38.5562 28.5271 39.0717 28.6296 39.5527 28.8288C40.0337 29.0281 40.4707 29.3201 40.8388 29.6882C41.207 30.0563 41.499 30.4934 41.6982 30.9744C41.8975 31.4554 42 31.9709 42 32.4915C42 33.0121 41.8975 33.5276 41.6982 34.0086C41.499 34.4896 41.207 34.9266 40.8388 35.2947C40.4707 35.6629 40.0337 35.9549 39.5527 36.1541C39.0717 36.3534 38.5562 36.4559 38.0356 36.4559H3.96441C3.4438 36.4559 2.92828 36.3534 2.4473 36.1541C1.96631 35.9549 1.52928 35.6629 1.16115 35.2947C0.79302 34.9266 0.501003 34.4896 0.301773 34.0086C0.102543 33.5276 0 33.0121 0 32.4915C0 31.9709 0.102543 31.4554 0.301773 30.9744C0.501003 30.4934 0.79302 30.0563 1.16115 29.6882C1.52928 29.3201 1.96631 29.0281 2.4473 28.8288C2.92828 28.6296 3.4438 28.5271 3.96441 28.5271Z" fill="white"/>
</svg>
