<svg width="15" height="15" viewBox="0 0 15 15" fill="none" xmlns="http://www.w3.org/2000/svg">
<g id="mail">
<path id="Vector" d="M14.4747 7.67261H11.8647C11.1297 7.67261 10.4773 8.0776 10.1473 8.73758L9.51728 9.98255C9.36728 10.2825 9.06729 10.47 8.7373 10.47H6.27735C6.04486 10.47 5.71487 10.4175 5.49737 9.98255L4.86739 8.74508C4.53739 8.0926 3.87741 7.68011 3.14993 7.68011H0.524988C0.232495 7.68011 0 7.9126 0 8.20509V10.65C0 13.3725 1.63496 14.9999 4.3649 14.9999H10.6498C13.2222 14.9999 14.8047 13.59 14.9996 11.085V8.1976C14.9996 7.9126 14.7672 7.67261 14.4747 7.67261Z" fill="#606060"/>
<path id="Vector_2" d="M14.9996 4.3574V6.63734C14.8347 6.57735 14.6547 6.54735 14.4747 6.54735H11.8647C10.7022 6.54735 9.65977 7.19233 9.14229 8.22731L8.5798 9.33728H6.43485L5.87236 8.23481C5.35487 7.19233 4.3124 6.54735 3.14993 6.54735H0.524988C0.344992 6.54735 0.164996 6.57735 0 6.63734V4.3574C0 1.62746 1.62746 0 4.3574 0H10.6423C13.3722 0 14.9996 1.62746 14.9996 4.3574Z" fill="#606060"/>
</g>
</svg>
