<svg width="13" height="15" viewBox="0 0 13 15" fill="none" xmlns="http://www.w3.org/2000/svg">
<path id="place" d="M12.8049 4.90244C12.0366 1.52195 9.08779 0 6.49754 0C6.49754 0 6.49754 0 6.49023 0C3.9073 0 0.951203 1.51463 0.182911 4.89512C-0.673187 8.67073 1.63901 11.8683 3.73169 13.8805C4.5073 14.6268 5.50242 15 6.49754 15C7.49267 15 8.48779 14.6268 9.25608 13.8805C11.3488 11.8683 13.661 8.67805 12.8049 4.90244ZM6.49754 8.56829C5.22437 8.56829 4.19267 7.53659 4.19267 6.26341C4.19267 4.99024 5.22437 3.95854 6.49754 3.95854C7.77072 3.95854 8.80242 4.99024 8.80242 6.26341C8.80242 7.53659 7.77072 8.56829 6.49754 8.56829Z" fill="#606060"/>
</svg>
