<svg width="30" height="30" viewBox="0 0 30 30" fill="none" xmlns="http://www.w3.org/2000/svg">
<g id="Price icon">
<path id="Vector" d="M13.8778 9.11682V13.4068L12.3628 12.8818C11.5978 12.6118 11.1328 12.3568 11.1328 11.0518C11.1328 9.98682 11.9278 9.11682 12.9028 9.11682H13.8778Z" fill="#73C1F2"/>
<path id="Vector_2" d="M18.8702 18.9425C18.8702 20.0075 18.0752 20.8775 17.1002 20.8775H16.1252V16.5875L17.6402 17.1125C18.4052 17.3825 18.8702 17.6375 18.8702 18.9425Z" fill="#73C1F2"/>
<path id="Vector_3" d="M21.285 0H8.715C3.255 0 0 3.255 0 8.715V21.285C0 26.745 3.255 30 8.715 30H21.285C26.745 30 30 26.745 30 21.285V8.715C30 3.255 26.745 0 21.285 0ZM18.39 15C19.56 15.405 21.12 16.26 21.12 18.945C21.12 21.255 19.32 23.13 17.1 23.13H16.125V24C16.125 24.615 15.615 25.125 15 25.125C14.385 25.125 13.875 24.615 13.875 24V23.13H13.335C10.875 23.13 8.88 21.045 8.88 18.495C8.88 17.88 9.375 17.37 10.005 17.37C10.62 17.37 11.13 17.88 11.13 18.495C11.13 19.815 12.12 20.88 13.335 20.88H13.875V15.795L11.61 15C10.44 14.595 8.88 13.74 8.88 11.055C8.88 8.745 10.68 6.87 12.9 6.87H13.875V6C13.875 5.385 14.385 4.875 15 4.875C15.615 4.875 16.125 5.385 16.125 6V6.87H16.665C19.125 6.87 21.12 8.955 21.12 11.505C21.12 12.12 20.625 12.63 19.995 12.63C19.38 12.63 18.87 12.12 18.87 11.505C18.87 10.185 17.88 9.12 16.665 9.12H16.125V14.205L18.39 15Z" fill="#73C1F2"/>
</g>
</svg>
