<svg width="16" height="15" viewBox="0 0 16 15" fill="none" xmlns="http://www.w3.org/2000/svg">
<g id="Star 41">
<path d="M7.36578 0.807213C7.62782 -0.000407219 8.7704 -0.000409007 9.03245 0.807211L10.1742 4.32603C10.2914 4.68718 10.6278 4.93175 11.0075 4.93175H14.7049C15.5533 4.93175 15.9064 6.01716 15.2203 6.5163L12.227 8.6941C11.9204 8.91719 11.7921 9.31224 11.9091 9.67293L13.0519 13.1952C13.3139 14.0025 12.3896 14.6734 11.7032 14.174L8.71455 11.9996C8.40728 11.7761 7.99094 11.7761 7.68368 11.9996L4.69505 14.174C4.00868 14.6734 3.08432 14.0025 3.34628 13.1952L4.48914 9.67293C4.60617 9.31224 4.47787 8.91719 4.17123 8.6941L1.17791 6.5163C0.491864 6.01716 0.844935 4.93175 1.69334 4.93175H5.3907C5.77038 4.93175 6.10685 4.68718 6.22403 4.32603L7.36578 0.807213Z" fill="#FF9900"/>
<path d="M7.36578 0.807213C7.62782 -0.000407219 8.7704 -0.000409007 9.03245 0.807211L10.1742 4.32603C10.2914 4.68718 10.6278 4.93175 11.0075 4.93175H14.7049C15.5533 4.93175 15.9064 6.01716 15.2203 6.5163L12.227 8.6941C11.9204 8.91719 11.7921 9.31224 11.9091 9.67293L13.0519 13.1952C13.3139 14.0025 12.3896 14.6734 11.7032 14.174L8.71455 11.9996C8.40728 11.7761 7.99094 11.7761 7.68368 11.9996L4.69505 14.174C4.00868 14.6734 3.08432 14.0025 3.34628 13.1952L4.48914 9.67293C4.60617 9.31224 4.47787 8.91719 4.17123 8.6941L1.17791 6.5163C0.491864 6.01716 0.844935 4.93175 1.69334 4.93175H5.3907C5.77038 4.93175 6.10685 4.68718 6.22403 4.32603L7.36578 0.807213Z" fill="#FF9900"/>
<path d="M7.36578 0.807213C7.62782 -0.000407219 8.7704 -0.000409007 9.03245 0.807211L10.1742 4.32603C10.2914 4.68718 10.6278 4.93175 11.0075 4.93175H14.7049C15.5533 4.93175 15.9064 6.01716 15.2203 6.5163L12.227 8.6941C11.9204 8.91719 11.7921 9.31224 11.9091 9.67293L13.0519 13.1952C13.3139 14.0025 12.3896 14.6734 11.7032 14.174L8.71455 11.9996C8.40728 11.7761 7.99094 11.7761 7.68368 11.9996L4.69505 14.174C4.00868 14.6734 3.08432 14.0025 3.34628 13.1952L4.48914 9.67293C4.60617 9.31224 4.47787 8.91719 4.17123 8.6941L1.17791 6.5163C0.491864 6.01716 0.844935 4.93175 1.69334 4.93175H5.3907C5.77038 4.93175 6.10685 4.68718 6.22403 4.32603L7.36578 0.807213Z" fill="#73C1F2"/>
</g>
</svg>
