<svg width="150" height="46" viewBox="0 0 150 46" fill="none" xmlns="http://www.w3.org/2000/svg">
<g id="Thermex logo" clip-path="url(#clip0_62_897)">
<g id="Clip path group">
<mask id="mask0_62_897" style="mask-type:luminance" maskUnits="userSpaceOnUse" x="0" y="0" width="150" height="46">
<g id="clip0_105_236">
<path id="Vector" d="M150 0H0V45.6941H150V0Z" fill="white"/>
</g>
</mask>
<g mask="url(#mask0_62_897)">
<g id="Group">
<path id="Vector_2" d="M150 0H0V45.6941H150V0Z" fill="white"/>
<path id="Vector_3" fill-rule="evenodd" clip-rule="evenodd" d="M-7.71204 22.7499V48.1992L69.6498 48.1516L147.012 48.1041L152.024 49.7429L150.964 -2.69922H69.6988H-7.71204V22.7499ZM-7.61853 22.8471C-7.61853 36.8445 -7.59558 42.5422 -7.56743 35.5088C-7.53948 28.4753 -7.53948 17.0229 -7.56743 10.0589C-7.59558 3.09487 -7.61853 8.84963 -7.61853 22.8471ZM61.8895 10.2185V12.9177H66.2276H70.5656V11.2789V9.64011H68.4448H66.324V10.1221C66.324 10.596 66.3496 10.6041 67.8664 10.6041H69.4088V11.2789V11.9537H66.324H63.2391V10.1221V8.2905H66.9024C70.437 8.2905 70.5656 8.277 70.5656 7.90489C70.5656 7.53067 70.437 7.51929 66.2276 7.51929H61.8895V10.2185ZM73.8914 8.81049L72.108 10.0878V11.5028V12.9177H72.6864C73.2189 12.9177 73.2648 12.8642 73.2648 12.2429V11.5681H76.3497H79.4345V12.2429C79.4345 12.8642 79.4804 12.9177 80.0129 12.9177H80.5913V10.2185V7.51929L78.1331 7.52623L75.6749 7.53298L73.8914 8.81049ZM82.1337 7.90489C82.1337 8.27488 82.2623 8.2905 85.315 8.2905C87.0646 8.2905 88.4949 8.35547 88.4931 8.4351C88.4914 8.51473 87.0598 9.35284 85.3119 10.298C82.599 11.7646 82.1337 12.0821 82.1337 12.467V12.9177H86.4718H90.8098V12.4357V11.9537L87.5804 11.9508L84.351 11.9478L85.5078 11.3082C86.144 10.9564 87.5972 10.157 88.7372 9.53157C90.4296 8.60322 90.8098 8.31441 90.8098 7.95695V7.51929H86.4718C82.2623 7.51929 82.1337 7.53067 82.1337 7.90489ZM95.8227 10.2185V12.9177H96.4975H97.1723V11.7609V10.6041H100.836H104.499V9.06171V7.51929H100.161H95.8227V10.2185ZM106.041 10.2185V12.9177H106.61C107.167 12.9177 107.18 12.8952 107.237 11.8091L107.294 10.7005L108.96 10.6452L110.626 10.5897L112.185 11.765C113.583 12.8185 113.827 12.9341 114.533 12.8809L115.321 12.8213L113.833 11.7609L112.345 10.7005L113.531 10.6431L114.717 10.5858V9.05245V7.51929H110.379H106.041V10.2185ZM116.838 10.2185V12.9177H121.176H125.514V10.2185V7.51929H121.176H116.838V10.2185ZM20.9848 7.92765C17.7666 8.25175 14.8485 9.67424 12.3297 12.1465C9.8291 14.6011 8.55583 17.0682 7.99092 20.5546C6.77935 28.0302 11.5298 35.2018 19.0875 37.3072C20.7972 37.7834 24.6671 37.7921 26.4027 37.3236C32.1725 35.766 36.4946 31.1092 37.4916 25.3764C37.8392 23.3767 37.8602 22.3516 37.5887 20.6298C36.9417 16.5284 34.7277 12.9557 31.3055 10.4908C28.4559 8.43819 24.8372 7.53954 20.9848 7.92765ZM75.0924 9.2682C74.3522 9.80612 73.6643 10.3267 73.5637 10.425C73.4507 10.5355 74.5416 10.6041 76.4075 10.6041H79.4345V9.44731V8.2905H77.9362C76.4407 8.2905 76.4353 8.29243 75.0924 9.2682ZM97.1723 8.96531V9.64011H100.257H103.342V8.96531V8.2905H100.257H97.1723V8.96531ZM107.327 8.4191C107.256 8.48966 107.198 8.79333 107.198 9.09391V9.64011H110.379H113.56V8.96531V8.2905H110.508C108.829 8.2905 107.397 8.34834 107.327 8.4191ZM117.995 10.1221V11.9537H121.08H124.165V10.1221V8.2905H121.08H117.995V10.1221ZM45.2443 13.0463C45.1736 13.1169 45.1157 13.8602 45.1157 14.6977C45.1157 15.5354 45.0315 16.3782 44.9285 16.5704C44.7132 16.9728 43.4058 17.545 42.7018 17.545C42.2328 17.545 42.2237 17.5741 42.2237 19.0874V20.6298H42.8985H43.5733L43.5776 25.2089C43.5812 29.249 43.6238 29.8805 43.9389 30.5744C44.5624 31.9471 45.9718 32.711 47.5522 32.5329C49.2525 32.3412 50.4525 31.044 50.664 29.169L50.7571 28.3419H49.8644C49.1094 28.3419 48.9718 28.3996 48.9718 28.7161C48.9718 29.2103 48.6394 29.3973 48.2848 29.1029C48.0473 28.9059 48.0089 28.1946 48.0523 24.7965L48.1042 20.7262L49.02 20.6674L49.9358 20.6086V19.0874V17.5662L49.02 17.5074L48.1042 17.4486L48.0498 15.1832L47.9956 12.9177H46.6842C45.9629 12.9177 45.3149 12.9756 45.2443 13.0463ZM51.8638 14.3638C51.8638 15.4884 51.9249 15.8098 52.1393 15.8098C52.2907 15.8098 52.5509 15.9461 52.7177 16.1127C52.9807 16.3758 53.0206 17.2427 53.0206 22.6847V28.9539L52.4422 29.1721C51.8725 29.3871 51.8638 29.4116 51.8638 30.7942V32.198H54.9486H58.0335V30.6941C58.0335 29.8357 57.9402 29.0969 57.8162 28.973C57.6702 28.827 57.602 27.6062 57.6083 25.2548C57.6164 22.2125 57.6616 21.7055 57.9519 21.3847C58.374 20.9185 59.036 20.9109 59.4496 21.3681C59.9102 21.8771 59.9299 28.7395 59.4716 29.1197C59.2443 29.3084 59.1878 29.6867 59.2306 30.7338L59.2867 32.1016L62.4197 32.1546L65.5527 32.2076V30.7568C65.5527 29.466 65.5128 29.3059 65.1907 29.3059C64.9917 29.3059 64.7389 29.1976 64.629 29.0649C64.5093 28.9205 64.4033 27.1248 64.3645 24.5823C64.2909 19.7678 64.1846 19.3728 62.7463 18.5632C61.4526 17.8348 60.0938 17.7974 57.8889 18.4296L57.4551 18.5539V15.7359V12.9177H54.6594H51.8638V14.3638ZM139.465 13.0999C138.509 13.5066 138.103 15.0613 138.722 15.9449C139.155 16.5638 140.242 16.8692 140.957 16.5731C142.69 15.8555 142.394 13.2472 140.553 13.0109C140.182 12.9633 139.692 13.0034 139.465 13.0999ZM139.291 13.7767C138.992 14.0749 138.818 14.4702 138.818 14.8458C138.818 15.5859 139.569 16.3882 140.264 16.3882C140.958 16.3882 141.71 15.5859 141.71 14.8458C141.71 14.1056 140.958 13.3034 140.264 13.3034C139.989 13.3034 139.551 13.5164 139.291 13.7767ZM14.6285 14.0136C13.7127 14.582 13.42 15.3478 13.336 17.3958L13.2589 19.271L16.6071 19.3238L19.9551 19.3766L20.0081 22.4133L20.0613 25.4499H22.8519H25.6427V22.3651V19.2802H28.9204H32.198L32.1951 17.4004C32.192 15.2802 32.0162 14.7742 31.0581 14.1285C30.4059 13.6891 30.403 13.689 22.7704 13.6942C16.0533 13.6986 15.0741 13.737 14.6285 14.0136ZM139.611 14.8818C139.623 15.3391 139.673 15.5616 139.722 15.376C139.829 14.9649 140.553 14.9229 140.553 15.3278C140.553 15.4868 140.626 15.617 140.715 15.617C140.803 15.617 140.865 15.2917 140.852 14.894C140.83 14.2269 140.78 14.1663 140.208 14.1106C139.594 14.0507 139.589 14.0576 139.611 14.8818ZM139.83 14.5084C139.874 14.641 140.026 14.7494 140.167 14.7494C140.308 14.7494 140.46 14.641 140.505 14.5084C140.552 14.3649 140.416 14.2674 140.167 14.2674C139.919 14.2674 139.782 14.3649 139.83 14.5084ZM15.4628 15.6555C15.3355 15.7828 15.2314 16.26 15.2314 16.716V17.545H18.509H21.7867V20.6298V23.7147H22.8471H23.9075V20.6298V17.545H27.1851H30.4628V16.6841C30.4628 16.0303 30.3731 15.7753 30.0899 15.6237C29.5271 15.3226 15.7659 15.3525 15.4628 15.6555ZM70.2425 18.0419C69.1422 18.4477 67.8639 19.6186 67.2862 20.7499C66.827 21.649 66.806 21.8426 66.806 25.1607V28.6311L67.3755 29.6593C69.1082 32.7875 73.0369 33.5156 75.6712 31.1969C76.6082 30.3721 77.5011 28.8174 77.5045 28.0045C77.5065 27.5821 77.4535 27.5707 75.4821 27.5707H73.4576V28.1354C73.4576 28.8455 73.009 29.3059 72.317 29.3059C71.4498 29.3059 71.1143 28.7566 71.182 27.4477L71.2404 26.3175L74.3893 26.3919L77.5381 26.4663L77.4741 23.9819C77.4232 22.0034 77.3341 21.3442 77.0366 20.7449C76.5546 19.7734 75.5873 18.8131 74.561 18.2871C73.5043 17.7453 71.3742 17.6244 70.2425 18.0419ZM116.334 18.0496C115.287 18.4209 114.069 19.4838 113.415 20.5978C112.904 21.4662 112.883 21.6093 112.821 24.7248C112.77 27.312 112.819 28.1381 113.069 28.891C113.476 30.1169 114.425 31.2041 115.708 31.9149C116.6 32.4087 116.94 32.4864 118.188 32.4823C119.373 32.4783 119.811 32.385 120.615 31.9645C122.14 31.1674 123.57 29.2591 123.582 28.0045C123.586 27.5819 123.534 27.5707 121.562 27.5707H119.537V28.1354C119.537 28.8507 119.088 29.3059 118.381 29.3059C117.478 29.3059 117.198 28.8544 117.263 27.5001L117.32 26.3175L120.453 26.3913L123.586 26.4652V24.2929C123.586 21.5875 123.366 20.8423 122.188 19.5528C120.681 17.9046 118.397 17.3179 116.334 18.0496ZM86.279 18.1097C85.9609 18.1865 85.511 18.3511 85.2795 18.4755C84.7123 18.7803 84.4474 18.7602 84.4474 18.4126C84.4474 18.1689 84.0081 18.1234 81.6517 18.1234H78.8561V19.5694C78.8561 20.8334 78.8999 21.0154 79.2031 21.0154C79.9458 21.0154 80.0129 21.3534 80.0129 25.0892C80.0129 28.1146 79.9637 28.7491 79.71 29.003C79.5432 29.1696 79.283 29.3059 79.1316 29.3059C78.9172 29.3059 78.8561 29.6273 78.8561 30.7519V32.198H82.2301H85.6042V30.7519C85.6042 29.6273 85.5431 29.3059 85.3287 29.3059C85.1773 29.3059 84.917 29.1696 84.7503 29.003C84.5023 28.7549 84.4475 28.1867 84.4485 25.87C84.4497 22.8043 84.64 21.7107 85.227 21.3966C85.567 21.2146 85.6042 21.2593 85.6042 21.8503C85.6042 23.2365 86.9434 24.0098 88.524 23.5363C89.66 23.196 90.076 22.4171 89.9949 20.7839C89.9426 19.7312 89.8425 19.3961 89.4544 18.9756C88.6117 18.0621 87.6091 17.7887 86.279 18.1097ZM98.5219 18.205C98.0447 18.3417 97.5024 18.5186 97.3169 18.5983C97.0755 18.7018 96.9795 18.655 96.9795 18.4332C96.9795 18.1629 96.623 18.1234 94.1839 18.1234H91.3882V19.5694C91.3882 20.8334 91.432 21.0154 91.7353 21.0154C92.4779 21.0154 92.545 21.3534 92.545 25.0892C92.545 28.1146 92.4959 28.7491 92.2421 29.003C92.0754 29.1696 91.8151 29.3059 91.6637 29.3059C91.4493 29.3059 91.3882 29.6273 91.3882 30.7519V32.198H94.4731H97.5579V30.7383C97.5579 29.6977 97.4748 29.1953 97.2687 28.9892C97.0331 28.7535 96.9795 28.0589 96.9795 25.2434C96.9795 22.0436 97.0082 21.7579 97.3651 21.401C97.5772 21.189 97.9242 21.0154 98.1363 21.0154C98.3484 21.0154 98.6954 21.189 98.9075 21.401C99.2644 21.7579 99.2931 22.0437 99.2931 25.2336C99.2931 28.0622 99.2412 28.7233 99.0039 28.9203C98.7916 29.0965 98.7147 29.5643 98.7147 30.6791V32.198H101.51H104.306V30.7383C104.306 29.6977 104.223 29.1953 104.017 28.9892C103.781 28.7535 103.728 28.0589 103.728 25.2434C103.728 22.0436 103.756 21.7579 104.113 21.401C104.325 21.189 104.672 21.0154 104.884 21.0154C105.096 21.0154 105.443 21.189 105.656 21.401C106.012 21.7579 106.041 22.0436 106.041 25.2434C106.041 28.0589 105.988 28.7535 105.752 28.9892C105.546 29.1953 105.463 29.6977 105.463 30.7383V32.198H108.548H111.632V30.7519C111.632 29.6273 111.571 29.3059 111.357 29.3059C111.206 29.3059 110.945 29.1696 110.779 29.003C110.522 28.746 110.476 28.0612 110.476 24.5005C110.476 20.4519 110.46 20.278 110.037 19.6508C109.796 19.2929 109.315 18.8086 108.967 18.5744C107.715 17.7305 105.28 17.8039 103.778 18.7309C103.16 19.1121 103.147 19.1121 102.621 18.7458C101.441 17.9237 100.115 17.7488 98.5219 18.205ZM124.743 19.4435C124.743 20.5814 124.797 20.7877 125.132 20.9377C125.627 21.1593 128.431 24.8817 128.362 25.2257C128.271 25.6772 125.628 28.8902 125.177 29.0981C124.783 29.2791 124.743 29.4316 124.743 30.7479V32.198H127.365H129.987L129.92 30.3733C129.863 28.853 129.907 28.4938 130.18 28.2208C130.451 27.9498 130.559 27.9361 130.807 28.141C131.04 28.3346 131.105 28.8085 131.105 30.2935V32.198H134.19H137.275V30.7338C137.275 29.4445 137.23 29.2581 136.899 29.1715C136.581 29.0883 133.419 25.4385 133.419 25.1543C133.419 25.1011 133.86 24.3432 134.399 23.4702C135.469 21.7381 136.242 20.8226 136.636 20.8226C136.821 20.8226 136.89 20.4586 136.89 19.473V18.1234H134.367H131.844L131.901 19.7632C131.947 21.1107 131.898 21.4624 131.624 21.7361C131.366 21.9941 131.216 22.0217 130.957 21.8586C130.672 21.6783 130.633 21.3933 130.691 19.8856L130.759 18.1234H127.751H124.743V19.4435ZM71.5296 21.2082C71.2468 21.4911 71.144 21.8508 71.144 22.5579V23.5219H72.3008H73.4576V22.5579C73.4576 21.5007 73.0055 20.8226 72.3008 20.8226C72.0887 20.8226 71.7417 20.9962 71.5296 21.2082ZM117.609 21.2082C117.326 21.4911 117.224 21.8508 117.224 22.5579V23.5219H118.381H119.537V22.5579C119.537 21.5007 119.085 20.8226 118.381 20.8226C118.168 20.8226 117.821 20.9962 117.609 21.2082ZM13.4962 25.7458C13.4962 29.6362 13.5415 30.3526 13.8139 30.7685C14.4901 31.8004 14.5932 31.8124 22.8629 31.8124C30.1884 31.8124 30.5403 31.796 31.1403 31.425C31.9778 30.9075 32.2286 30.2161 32.1594 28.6163L32.1016 27.2815L25.1125 27.231L18.1234 27.1803V24.1944V21.2082H15.8098H13.4962V25.7458Z" fill="#ED1C24"/>
</g>
</g>
</g>
</g>
<defs>
<clipPath id="clip0_62_897">
<rect width="150" height="45.6941" fill="white"/>
</clipPath>
</defs>
</svg>
