<svg width="30" height="30" viewBox="0 0 30 30" fill="none" xmlns="http://www.w3.org/2000/svg">
<g id="viber">
<rect id="Rectangle 4168" width="30" height="30" rx="2" fill="white"/>
<g id="Group 8725">
<path id="path207" d="M18.2144 13.9287C18.1446 12.5687 17.4303 11.8545 16.0715 11.7859L18.2144 13.9287Z" fill="#505050"/>
<path id="path209" d="M20.3559 13.9288C20.3827 12.7484 20.0154 11.7622 19.254 10.9702C18.4891 10.1754 17.4303 9.73773 16.0715 9.64307" fill="#505050"/>
<path id="path211" d="M23.2679 13.7977C23.424 11.8164 22.74 10.1836 21.2158 8.89963C19.6916 7.61561 17.7208 6.85935 15.3035 6.63086" fill="#505050"/>
<path id="path213" d="M16.5219 18.3913C16.5219 18.3913 17.0521 18.4361 17.3376 18.0844L17.8942 17.3842C18.1627 17.037 18.8106 16.8155 19.4451 17.169C19.9206 17.4401 20.3822 17.7349 20.8282 18.0522C21.2493 18.3618 22.1115 19.0812 22.1142 19.0812C22.525 19.428 22.6198 19.9372 22.3402 20.4741C22.3402 20.4772 22.3379 20.4826 22.3379 20.4852C22.0299 21.0192 21.6389 21.5006 21.1795 21.9116C21.1741 21.9143 21.1741 21.917 21.1692 21.9197C20.7701 22.2532 20.3779 22.4427 19.9928 22.4883C19.9361 22.4983 19.8785 22.5019 19.821 22.4991C19.6512 22.5007 19.4822 22.4747 19.3207 22.4221L19.3082 22.4038C18.7149 22.2365 17.7242 21.8177 16.0744 20.9076C15.1197 20.3872 14.2108 19.7868 13.3575 19.113C12.9297 18.7755 12.5217 18.4136 12.1354 18.0294L12.0943 17.9882L12.0531 17.947L12.0119 17.9059C11.9981 17.8924 11.9847 17.8786 11.9708 17.8647C11.5865 17.4785 11.2246 17.0705 10.887 16.6428C10.2133 15.7896 9.61286 14.8809 9.09228 13.9265C8.18215 12.2764 7.76333 11.2867 7.59598 10.6925L7.57763 10.68C7.52518 10.5185 7.49933 10.3496 7.50112 10.1798C7.49799 10.1223 7.50144 10.0647 7.51141 10.008C7.55944 9.62351 7.74931 9.23112 8.08102 8.83083C8.08371 8.82591 8.08639 8.82591 8.08908 8.82054C8.49998 8.36118 8.98153 7.97029 9.51558 7.66261C9.51826 7.66261 9.52363 7.65993 9.52676 7.65993C10.0637 7.38029 10.5729 7.47514 10.9193 7.88364C10.9219 7.88632 11.6401 8.7485 11.9484 9.16953C12.2658 9.61593 12.5606 10.078 12.8317 10.5538C13.1852 11.1878 12.9637 11.837 12.6165 12.1046L11.9162 12.6612C11.5627 12.9467 11.6092 13.4768 11.6092 13.4768C11.6092 13.4768 12.6464 17.4021 16.5219 18.3913Z" fill="#505050"/>
</g>
</g>
</svg>
