<svg width="43" height="42" viewBox="0 0 43 42" fill="none" xmlns="http://www.w3.org/2000/svg">
<g id="viber">
<rect id="Rectangle 4168" x="0.670166" y="0.5" width="41" height="41" rx="4.5" fill="white" stroke="#606060"/>
<g id="Group 8725">
<path id="path207" d="M25.6703 19.5002C25.5726 17.5962 24.5726 16.5962 22.6703 16.5002L25.6703 19.5002Z" fill="#505050"/>
<path id="path209" d="M28.6684 19.5002C28.7059 17.8477 28.1917 16.4671 27.1257 15.3582C26.0548 14.2455 24.5725 13.6328 22.6703 13.5002" fill="#505050"/>
<path id="path211" d="M32.7454 19.3168C32.964 16.5429 32.0064 14.2571 29.8725 12.4595C27.7386 10.6619 24.9795 9.6031 21.5952 9.2832" fill="#505050"/>
<path id="path213" d="M23.3008 25.7478C23.3008 25.7478 24.0431 25.8105 24.4428 25.3181L25.2221 24.3378C25.598 23.8518 26.5051 23.5417 27.3933 24.0365C28.059 24.4162 28.7053 24.8288 29.3297 25.273C29.9192 25.7065 31.1263 26.7137 31.1301 26.7137C31.7051 27.1992 31.838 27.912 31.4464 28.6637C31.4464 28.6681 31.4433 28.6756 31.4433 28.6793C31.0121 29.4268 30.4646 30.1009 29.8214 30.6763C29.8139 30.68 29.8139 30.6838 29.807 30.6875C29.2482 31.1544 28.6993 31.4198 28.1601 31.4837C28.0807 31.4976 28.0001 31.5026 27.9196 31.4987C27.6818 31.501 27.4453 31.4646 27.2192 31.391L27.2017 31.3653C26.371 31.131 24.9841 30.5447 22.6744 29.2707C21.3378 28.5421 20.0653 27.7016 18.8706 26.7582C18.2718 26.2856 17.7006 25.7791 17.1598 25.2411L17.1022 25.1835L17.0445 25.1258L16.9869 25.0682C16.9675 25.0494 16.9487 25.03 16.9293 25.0106C16.3912 24.4698 15.8846 23.8987 15.412 23.2999C14.4687 22.1054 13.6282 20.8333 12.8994 19.4971C11.6252 17.187 11.0388 15.8014 10.8045 14.9696L10.7789 14.952C10.7054 14.7259 10.6692 14.4894 10.6717 14.2517C10.6673 14.1713 10.6722 14.0906 10.6861 14.0112C10.7534 13.4729 11.0192 12.9236 11.4836 12.3632C11.4874 12.3563 11.4911 12.3563 11.4949 12.3488C12.0701 11.7056 12.7443 11.1584 13.492 10.7277C13.4957 10.7277 13.5032 10.7239 13.5076 10.7239C14.2594 10.3324 14.9723 10.4652 15.4571 11.0371C15.4609 11.0409 16.4663 12.2479 16.8979 12.8373C17.3422 13.4623 17.7549 14.1091 18.1345 14.7754C18.6294 15.663 18.3193 16.5719 17.8332 16.9464L16.8528 17.7257C16.3579 18.1253 16.4231 18.8676 16.4231 18.8676C16.4231 18.8676 17.8752 24.3629 23.3008 25.7478Z" fill="#505050"/>
</g>
</g>
</svg>
