<svg width="30" height="30" viewBox="0 0 30 30" fill="none" xmlns="http://www.w3.org/2000/svg">
<g id="whatsapp">
<rect id="Rectangle 4168" width="30" height="30" rx="2" fill="#73C1F2"/>
<g id="Group 8723">
<path id="Vector" d="M6 24.0016L6.72 21.8566C6.96 21.1666 7.155 20.4616 7.425 19.7866C7.49872 19.6427 7.53716 19.4833 7.53716 19.3216C7.53716 19.1599 7.49872 19.0005 7.425 18.8566C6.57216 17.2821 6.22411 15.4835 6.42804 13.7045C6.63196 11.9255 7.378 10.2523 8.565 8.91161C9.42675 7.92928 10.5022 7.15754 11.7087 6.65568C12.9153 6.15382 14.2208 5.9352 15.525 6.01661C17.5018 6.08184 19.3924 6.84127 20.865 8.16161C22.2576 9.37368 23.2293 10.9967 23.64 12.7966C23.983 14.2522 23.9416 15.7719 23.52 17.2066C23.0045 19.0095 21.9076 20.5916 20.4 21.7066C19.4018 22.484 18.2441 23.031 17.0097 23.3085C15.7753 23.586 14.4948 23.5871 13.26 23.3116C12.4788 23.1545 11.7255 22.8815 11.025 22.5016C10.971 22.4762 10.9121 22.463 10.8525 22.463C10.7929 22.463 10.734 22.4762 10.68 22.5016L6.66 23.7616L6 24.0016ZM8.28 21.7366H8.415L10.935 20.9416C11.0225 20.9119 11.1175 20.9119 11.205 20.9416C11.565 21.1216 11.91 21.3466 12.285 21.4966C13.7795 22.153 15.4568 22.2645 17.025 21.8116C17.9474 21.5652 18.8113 21.1371 19.566 20.5524C20.3207 19.9677 20.951 19.2382 21.42 18.4066C22.3507 16.7865 22.6253 14.8714 22.1872 13.0551C21.7492 11.2388 20.6319 9.65935 19.065 8.64161C17.6463 7.72123 15.9518 7.3227 14.2716 7.51425C12.5914 7.7058 11.0301 8.47553 9.855 9.69161C8.8931 10.6739 8.2366 11.9139 7.965 13.2616C7.75151 14.1856 7.72785 15.1433 7.89544 16.0766C8.06304 17.01 8.4184 17.8996 8.94 18.6916C9.02468 18.8319 9.06943 18.9927 9.06943 19.1566C9.06943 19.3205 9.02468 19.4813 8.94 19.6216C8.745 20.2816 8.535 21.0016 8.28 21.7366Z" fill="white"/>
<path id="Vector_2" d="M19.59 17.2965C19.5808 17.6158 19.4816 17.9261 19.3038 18.1915C19.126 18.4569 18.8768 18.6666 18.585 18.7965C18.282 18.9621 17.9467 19.0599 17.6023 19.0832C17.2578 19.1065 16.9124 19.0547 16.59 18.9315C15.9724 18.7075 15.3666 18.4522 14.775 18.1665C14.0107 17.7616 13.3289 17.2173 12.765 16.5615C12.1251 15.8578 11.5758 15.0767 11.13 14.2365C10.7955 13.6543 10.6391 12.9867 10.68 12.3165C10.7108 11.9704 10.8151 11.6349 10.9858 11.3323C11.1565 11.0297 11.3897 10.7669 11.67 10.5615C11.7992 10.474 11.9493 10.4223 12.105 10.4115C12.2946 10.3962 12.4853 10.3962 12.675 10.4115C12.7443 10.4203 12.8096 10.4491 12.8629 10.4944C12.9162 10.5397 12.9551 10.5995 12.975 10.6665C13.125 11.0115 13.245 11.3565 13.38 11.7165C13.515 12.0765 13.545 12.1965 13.65 12.4215C13.7423 12.5455 13.787 12.6985 13.776 12.8527C13.765 13.0068 13.6989 13.1519 13.59 13.2615C13.4455 13.4502 13.2849 13.6258 13.11 13.7865C13.0459 13.837 13.0029 13.9093 12.989 13.9896C12.9752 14.0699 12.9915 14.1525 13.035 14.2215C13.4411 14.9591 13.9801 15.6151 14.625 16.1565C15.0872 16.5032 15.5911 16.7904 16.125 17.0115C16.1803 17.0621 16.2525 17.0902 16.3275 17.0902C16.4024 17.0902 16.4747 17.0621 16.53 17.0115L17.28 16.1565C17.445 15.9765 17.52 15.9315 17.73 16.0365L19.575 16.9965C19.5999 17.0422 19.6142 17.0928 19.6168 17.1448C19.6194 17.1967 19.6102 17.2486 19.59 17.2965Z" fill="white"/>
</g>
</g>
</svg>
