<svg width="43" height="42" viewBox="0 0 43 42" fill="none" xmlns="http://www.w3.org/2000/svg">
<g id="whatsapp">
<rect id="Rectangle 4168" x="0.585083" y="0.5" width="41" height="41" rx="4.5" fill="white" stroke="#606060"/>
<g id="Group 8723">
<path id="Vector" d="M8.48511 33.6022L9.49311 30.5992C9.82911 29.6332 10.1021 28.6462 10.4801 27.7012C10.5833 27.4997 10.6371 27.2765 10.6371 27.0502C10.6371 26.8238 10.5833 26.6006 10.4801 26.3992C9.28614 24.1949 8.79887 21.6768 9.08436 19.1862C9.36986 16.6956 10.4143 14.3531 12.0761 12.4762C13.2826 11.1009 14.7882 10.0205 16.4773 9.31786C18.1665 8.61526 19.9942 8.30919 21.8201 8.42315C24.5876 8.51448 27.2345 9.57769 29.2961 11.4262C31.2457 13.1231 32.6061 15.3953 33.1811 17.9152C33.6613 19.9529 33.6034 22.0805 33.0131 24.0892C32.2914 26.6133 30.7558 28.8281 28.6451 30.3892C27.2477 31.4775 25.6268 32.2434 23.8987 32.6318C22.1705 33.0203 20.3779 33.0218 18.6491 32.6362C17.5554 32.4162 16.5008 32.034 15.5201 31.5022C15.4446 31.4666 15.3621 31.4482 15.2786 31.4482C15.1951 31.4482 15.1126 31.4666 15.0371 31.5022L9.40911 33.2662L8.48511 33.6022ZM11.6771 30.4312H11.8661L15.3941 29.3182C15.5167 29.2766 15.6495 29.2766 15.7721 29.3182C16.2761 29.5702 16.7591 29.8852 17.2841 30.0952C19.3764 31.0141 21.7246 31.1702 23.9201 30.5362C25.2114 30.1912 26.4209 29.5919 27.4775 28.7733C28.5341 27.9547 29.4165 26.9334 30.0731 25.7692C31.3761 23.501 31.7605 20.8199 31.1472 18.277C30.534 15.7342 28.9697 13.523 26.7761 12.0982C24.79 10.8096 22.4176 10.2517 20.0654 10.5199C17.7131 10.788 15.5273 11.8656 13.8821 13.5682C12.5354 14.9433 11.6163 16.6794 11.2361 18.5662C10.9372 19.8597 10.9041 21.2005 11.1387 22.5072C11.3734 23.8139 11.8709 25.0594 12.6011 26.1682C12.7197 26.3646 12.7823 26.5897 12.7823 26.8192C12.7823 27.0486 12.7197 27.2737 12.6011 27.4702C12.3281 28.3942 12.0341 29.4022 11.6771 30.4312Z" fill="#505050"/>
<path id="Vector_2" d="M27.5111 24.2149C27.4983 24.662 27.3595 25.0963 27.1105 25.4678C26.8616 25.8394 26.5127 26.133 26.1041 26.3149C25.68 26.5467 25.2106 26.6836 24.7284 26.7162C24.2462 26.7489 23.7626 26.6764 23.3111 26.5039C22.4465 26.1903 21.5984 25.8328 20.7701 25.4329C19.7001 24.8661 18.7457 24.1039 17.9561 23.1859C17.0603 22.2006 16.2913 21.1071 15.6671 19.9309C15.1989 19.1157 14.9799 18.1812 15.0371 17.2429C15.0803 16.7584 15.2263 16.2887 15.4652 15.865C15.7042 15.4413 16.0308 15.0734 16.4231 14.7859C16.6041 14.6634 16.8142 14.591 17.0321 14.5759C17.2977 14.5545 17.5646 14.5545 17.8301 14.5759C17.9272 14.5882 18.0187 14.6285 18.0933 14.6919C18.1678 14.7553 18.2223 14.839 18.2501 14.9329C18.4601 15.4159 18.6281 15.8989 18.8171 16.4029C19.0061 16.9069 19.0481 17.0749 19.1951 17.3899C19.3243 17.5635 19.387 17.7777 19.3715 17.9935C19.3561 18.2093 19.2637 18.4125 19.1111 18.5659C18.9089 18.83 18.6841 19.0759 18.4391 19.3009C18.3495 19.3715 18.2892 19.4728 18.2698 19.5853C18.2504 19.6977 18.2733 19.8133 18.3341 19.9099C18.9027 20.9425 19.6574 21.8609 20.5601 22.6189C21.2072 23.1043 21.9128 23.5064 22.6601 23.8159C22.7375 23.8867 22.8387 23.926 22.9436 23.926C23.0486 23.926 23.1497 23.8867 23.2271 23.8159L24.2771 22.6189C24.5081 22.3669 24.6131 22.3039 24.9071 22.4509L27.4901 23.7949C27.5251 23.8588 27.5451 23.9298 27.5487 24.0025C27.5524 24.0752 27.5395 24.1478 27.5111 24.2149Z" fill="#505050"/>
</g>
</g>
</svg>
